<svg width="512" height="512" viewBox="0 0 512 512" fill="none" xmlns="http://www.w3.org/2000/svg">
<path fill-rule="evenodd" clip-rule="evenodd" d="M512 256C512 397.385 397.385 512 256 512C114.615 512 0 397.385 0 256C0 114.615 114.615 0 256 0C397.385 0 512 114.615 512 256ZM54.8571 259.657C54.8571 309.029 74.9714 360.229 113.371 398.629C151.771 437.029 202.971 455.314 254.171 457.143L54.8571 259.657ZM60.3429 212.114L299.886 451.657C389.486 431.543 457.143 351.086 457.143 256H329.143V292.571H416.914C404.114 347.429 363.886 393.143 310.857 411.429L100.571 201.143C124.343 137.143 184.686 91.4286 256 91.4286C310.857 91.4286 360.229 118.857 391.314 160.914L418.743 137.143C382.171 87.7714 323.657 54.8571 256 54.8571C160.914 54.8571 80.4571 122.514 60.3429 212.114Z" fill="black"/>
</svg>
