<svg width="512" height="512" viewBox="0 0 512 512" fill="none" xmlns="http://www.w3.org/2000/svg">
<path d="M50.6703 379.093L69.452 389.937L278.687 27.5413L259.906 16.6974L50.6703 379.093Z" fill="black"/>
<path d="M464.84 350.141H46.3694V371.829H464.84V350.141Z" fill="black"/>
<path d="M54.6498 362.325L263.964 483.176L274.808 464.394L65.4937 343.543L54.6498 362.325Z" fill="black"/>
<path d="M236.481 47.3562L445.794 168.207L456.638 149.425L247.325 28.5745L236.481 47.3562Z" fill="black"/>
<path d="M54.708 149.343L65.5519 168.125L274.866 47.2736L264.022 28.4919L54.708 149.343Z" fill="black"/>
<path d="M232.7 27.5451L441.935 389.941L460.717 379.097L251.481 16.7012L232.7 27.5451Z" fill="black"/>
<path d="M84.6498 134.961H62.9619V376.663H84.6498V134.961Z" fill="black"/>
<path d="M448.378 134.961H426.691V376.663H448.378V134.961Z" fill="black"/>
<path d="M250.799 457.59L260.271 473.996L442.318 368.888L432.846 352.482L250.799 457.59Z" fill="black"/>
<path d="M477.121 383.718C464.579 405.536 436.62 412.984 414.801 400.441C392.983 387.899 385.536 359.94 398.078 338.121C410.621 316.303 438.58 308.856 460.398 321.398C482.347 334.071 489.794 361.899 477.121 383.718Z" fill="black"/>
<path d="M113.131 173.503C100.589 195.321 72.63 202.768 50.8115 190.226C28.993 177.684 21.546 149.724 34.0884 127.906C46.6307 106.088 74.5897 98.6405 96.4082 111.183C118.227 123.856 125.674 151.684 113.131 173.503Z" fill="black"/>
<path d="M34.219 383.718C21.6766 361.899 29.1236 334.071 50.9421 321.398C72.7606 308.856 100.589 316.303 113.262 338.121C125.804 359.94 118.357 387.768 96.5389 400.441C74.5897 412.984 46.7613 405.536 34.219 383.718Z" fill="black"/>
<path d="M398.209 173.503C385.667 151.684 393.114 123.856 414.932 111.183C436.751 98.6405 464.579 106.088 477.252 127.906C489.794 149.724 482.347 177.553 460.529 190.226C438.71 202.768 410.751 195.321 398.209 173.503Z" fill="black"/>
<path d="M255.67 511.624C230.455 511.624 210.073 491.243 210.073 466.027C210.073 440.812 230.455 420.431 255.67 420.431C280.886 420.431 301.267 440.812 301.267 466.027C301.267 491.112 280.886 511.624 255.67 511.624Z" fill="black"/>
<path d="M255.67 91.1935C230.455 91.1935 210.073 70.8121 210.073 45.5967C210.073 20.3813 230.455 0 255.67 0C280.886 0 301.267 20.3813 301.267 45.5967C301.267 70.8121 280.886 91.1935 255.67 91.1935Z" fill="black"/>
</svg>
