<svg width="575" height="512" viewBox="0 0 575 512" fill="none" xmlns="http://www.w3.org/2000/svg">
<path d="M575 256.059C575 217.972 527.298 181.878 454.163 159.495C471.041 84.9622 463.54 25.6644 430.488 6.67979C422.87 2.22659 413.962 0.117187 404.235 0.117187V26.2504C409.626 26.2504 413.962 27.3051 417.596 29.2973C433.535 38.4381 440.45 73.2433 435.059 118.01C433.77 129.025 431.66 140.627 429.082 152.463C406.11 146.838 381.028 142.502 354.658 139.69C338.835 118.01 322.427 98.3218 305.901 81.095C344.109 45.5866 379.974 26.1332 404.352 26.1332V0C372.121 0 329.928 22.9691 287.266 62.8135C244.604 23.2035 202.41 0.468759 170.179 0.468759V26.602C194.44 26.602 230.422 45.9382 268.63 81.2122C252.222 98.439 235.813 118.01 220.225 139.69C193.737 142.502 168.656 146.838 145.684 152.58C142.988 140.862 140.996 129.494 139.589 118.596C134.081 73.8292 140.879 39.024 156.701 29.7661C160.217 27.6567 164.788 26.7192 170.179 26.7192V0.585946C160.334 0.585946 151.427 2.69535 143.691 7.14854C110.757 26.1332 103.373 85.3138 120.368 159.612C47.4674 182.112 0 218.089 0 256.059C0 294.145 47.7018 330.239 120.837 352.623C103.959 427.155 111.46 486.453 144.512 505.437C152.13 509.891 161.038 512 170.883 512C203.114 512 245.307 489.031 287.969 449.186C330.631 488.796 372.824 511.531 405.055 511.531C414.9 511.531 423.808 509.422 431.543 504.969C464.477 485.984 471.861 426.803 454.866 352.505C527.533 330.122 575 294.028 575 256.059ZM422.401 177.893C418.065 193.011 412.673 208.597 406.579 224.183C401.773 214.808 396.734 205.433 391.225 196.058C385.834 186.683 380.091 177.542 374.348 168.635C390.991 171.096 407.047 174.143 422.401 177.893ZM368.722 302.7C359.58 318.52 350.204 333.521 340.476 347.466C323.013 348.99 305.315 349.81 287.5 349.81C269.802 349.81 252.105 348.99 234.758 347.583C225.031 333.638 215.537 318.755 206.395 303.051C197.488 287.7 189.401 272.113 182.017 256.41C189.284 240.707 197.488 225.003 206.278 209.652C215.42 193.831 224.796 178.831 234.524 164.885C251.987 163.362 269.685 162.542 287.5 162.542C305.198 162.542 322.895 163.362 340.242 164.768C349.969 178.714 359.463 193.597 368.605 209.3C377.512 224.652 385.599 240.238 392.983 255.941C385.599 271.645 377.512 287.348 368.722 302.7ZM406.579 287.465C412.908 303.169 418.299 318.872 422.753 334.107C407.399 337.857 391.225 341.021 374.465 343.482C380.208 334.458 385.951 325.2 391.342 315.708C396.734 306.333 401.773 296.84 406.579 287.465ZM287.734 412.506C276.835 401.256 265.935 388.717 255.152 375.006C265.7 375.474 276.483 375.826 287.383 375.826C298.4 375.826 309.3 375.592 319.965 375.006C309.417 388.717 298.517 401.256 287.734 412.506ZM200.535 343.482C183.892 341.021 167.835 337.974 152.482 334.224C156.818 319.106 162.21 303.52 168.304 287.934C173.109 297.309 178.149 306.684 183.658 316.059C189.166 325.435 194.792 334.575 200.535 343.482ZM287.148 99.6109C298.048 110.861 308.948 123.4 319.731 137.111C309.183 136.643 298.4 136.291 287.5 136.291C276.483 136.291 265.583 136.526 254.917 137.111C265.466 123.4 276.366 110.861 287.148 99.6109ZM200.418 168.635C194.675 177.659 188.932 186.917 183.541 196.409C178.149 205.784 173.109 215.16 168.304 224.535C161.975 208.831 156.584 193.128 152.13 177.893C167.484 174.26 183.658 171.096 200.418 168.635ZM94.3488 315.356C52.8588 297.661 26.0192 274.457 26.0192 256.059C26.0192 237.66 52.8588 214.339 94.3488 196.761C104.428 192.425 115.445 188.558 126.814 184.925C133.495 207.894 142.285 231.8 153.185 256.293C142.402 280.668 133.729 304.458 127.166 327.31C115.563 323.677 104.545 319.692 94.3488 315.356ZM157.404 482.82C141.465 473.679 134.55 438.874 139.941 394.108C141.23 383.092 143.34 371.49 145.918 359.654C168.89 365.279 193.972 369.615 220.342 372.428C236.165 394.108 252.573 413.795 269.099 431.022C230.891 466.53 195.026 485.984 170.648 485.984C165.374 485.867 160.92 484.812 157.404 482.82ZM435.411 393.522C440.919 438.288 434.121 473.093 418.299 482.351C414.783 484.46 410.212 485.398 404.821 485.398C380.559 485.398 344.578 466.062 306.37 430.788C322.778 413.561 339.187 393.99 354.775 372.31C381.263 369.498 406.344 365.162 429.316 359.42C432.012 371.256 434.121 382.623 435.411 393.522ZM480.534 315.356C470.455 319.692 459.437 323.56 448.069 327.192C441.388 304.223 432.598 280.317 421.698 255.824C432.481 231.449 441.154 207.659 447.717 184.807C459.32 188.44 470.337 192.425 480.651 196.761C522.141 214.456 548.981 237.66 548.981 256.059C548.864 274.457 522.024 297.778 480.534 315.356Z" fill="black"/>
<path d="M287.031 309.614C316.613 309.614 340.593 285.636 340.593 256.059C340.593 226.481 316.613 202.503 287.031 202.503C257.45 202.503 233.469 226.481 233.469 256.059C233.469 285.636 257.45 309.614 287.031 309.614Z" fill="black"/>
</svg>
