<svg width="512" height="512" viewBox="0 0 512 512" fill="none" xmlns="http://www.w3.org/2000/svg">
<path fill-rule="evenodd" clip-rule="evenodd" d="M255.999 35.8748C313.42 35.8748 365.703 57.879 404.894 93.9055C385.685 93.39 366.516 104.808 365.723 130.956C364.107 183.815 428.93 195.075 394.001 301.399L365.108 389.347L286.419 157.549C285.199 153.961 286.617 151.919 291.028 151.919H313.275C314.431 151.919 315.376 150.932 315.376 149.723V136.546C315.376 135.338 314.428 134.301 313.275 134.351C271.144 136.193 229.262 136.205 187.633 134.351C186.473 134.301 185.531 135.342 185.531 136.551V149.728C185.531 150.935 186.477 151.924 187.633 151.924H210.002C214.977 151.924 216.37 153.582 217.544 156.789L249.876 245.213L201.239 392.076L121.29 156.591C120.299 153.637 121.498 151.923 124.343 151.923H149.831C150.987 151.923 151.932 150.935 151.932 149.726V136.55C151.932 135.341 150.983 134.293 149.831 134.354C123.089 135.774 96.2448 136.06 71.2393 136.317C110.479 75.8705 178.564 35.8704 255.986 35.8704L255.985 35.8698L255.999 35.8748ZM449.597 151.179C466.511 182.343 476.116 218.048 476.116 255.986C476.116 339.25 429.852 411.721 361.644 449.128L430.293 254.688C440.929 224.596 450.801 183.927 449.592 151.179H449.591H449.597ZM329.693 463.44C306.649 471.638 281.849 476.108 255.999 476.108C233.727 476.108 212.239 472.787 191.979 466.642L259.79 272.311L329.692 463.45V463.45L329.693 463.44ZM161.807 454.976C87.3686 419.673 35.8778 343.835 35.8778 255.996C35.8778 223.434 42.9612 192.523 55.6568 164.712L161.812 454.98L161.813 454.979L161.807 454.976ZM255.992 15.2186C388.939 15.2186 496.76 123.039 496.76 255.986C496.76 388.933 388.939 496.754 255.992 496.754C123.045 496.754 15.2245 388.933 15.2245 255.986C15.2245 123.039 123.045 15.2186 255.992 15.2186V15.2186ZM255.992 0C397.345 0 511.984 114.64 511.984 255.992C511.984 397.345 397.345 511.985 255.992 511.985C114.64 511.985 0 397.345 0 255.992C0 114.64 114.64 0 255.992 0V0Z" fill="black"/>
</svg>
