<svg xmlns="http://www.w3.org/2000/svg" fill="none" viewBox="0 0 512 512"><path fill="#000" fill-rule="evenodd" d="M459.551 37.446c-2.713-.683-7.138-1.012-24.929-1.012-5.745 0-12.276.034-19.219.069-7.837.04-16.205.081-24.556.081-13.426 0-32.227-.097-45.606-.872-21.429-15.727-46.113-24.122-73.427-24.954-59.192-1.83-111.6 24.003-139.979 68.413-9.591 9.208-27.635 19.447-32.514 20.54-8.18 1.835-13.478 9.068-12.594 17.194.637 5.858 4.762 12.441 13.967 15.501a44.256 44.256 0 00-3.017 3.306c-6.238 7.589-8.847 16.215-7.347 24.293.303 1.62.723 3.169 1.258 4.641-13.494 23.19-20.593 49.514-20.593 76.579 0 6.835.456 13.636 1.362 20.371a37.115 37.115 0 00-6.393-.561c-10.264 0-19.779 4.493-26.098 12.327-6.98 8.655-9.427 20.234-6.89 32.604 5.163 25.194 42.968 67.667 73.113 74.974 2.969.716 5.805 1.082 8.427 1.082 8.065 0 14.726-3.432 18.762-9.664a24.16 24.16 0 002.849-6.232c20.573 14.324 44.354 23.195 69.547 25.771 5.458 17.98 20.113 20.977 29.258 20.977 13.787 0 25.697-5.658 34.189-16.088.767.01 1.537.018 2.309.018 5.829 0 13.072-.403 21.358-1.693-26.524 30.048-64.84 47.34-93.055 47.346h-.007c-11.892 0-27.868-3.064-36.452-17.64-11.357-19.286-29.563-31.268-47.508-31.268-18.85 0-31.948 13.436-32.587 33.43-.347 10.823 5.27 22.595 16.247 34.037 18.464 19.252 54.268 38.677 92.642 38.677 8.479 0 16.789-.958 24.697-2.85 68.003-16.259 128.932-71.226 146.655-131.681 64.909-50.062 59.764-187.688 38.254-249.052a207.036 207.036 0 00-4.834-12.504c2.617.306 5.205.459 7.751.459 5.946 0 11.739-.843 17.22-2.503 33.738-10.217 48.98-35.5 48.662-49.374-.167-7.323-4.457-13.11-10.922-14.742z" clip-rule="evenodd"/><path fill="#639" fill-rule="evenodd" d="M348.544 198.377c-20.941-18.951-35.377-30.599-56.134-34.934-13.956-2.914-30.612.816-45.307 4.106-11.135 2.497-20.752 4.657-28.235 3.856-11.493-1.222-20.604-7.328-23.2-15.561-1.829-5.8-1.328-15.096 11.459-26.456 5.32-4.728 11.686-8.679 18.666-11.89-10.066.016-20.012-1.939-29.571-7.062-12.347 17.311-43.681 29.851-53.324 25.529-2.142-.962-4.535-2.61-6.745-4.91-.209.163-.402.342-.61.508 2.544 2.405 4.399 5.774 5.2 9.712 1.625 7.984-1.143 16.526-7.408 22.847-5.453 5.508-12.322 8.666-18.842 8.666-4.561 0-8.454-1.601-11.37-4.399-12.9 21.207-20.388 46.122-20.388 72.836 0 12.437 1.647 24.48 4.67 35.956 12.947 10.773 34.271 53.57 38.922 64.307.254.587.541 1.33.835 2.188 22.19 20.714 51.101 34.203 83.078 36.695-.402-5.34-.222-11.029-.037-16.647.225-6.883.46-14.003-.43-19.85-.733-4.812-1.957-9.975-3.253-15.441-4.83-20.379-10.309-43.479 8.996-56.47 3.699-2.492 7.722-3.756 11.952-3.756 17.345 0 33.111 21.114 41.246 37.168 11.078-18.103 29.284-29.582 50.934-31.797 10.964-1.125 21.903.311 30.92 3.682a137.061 137.061 0 004.814-36.035c0-14.659-2.301-29.072-6.838-42.848z" clip-rule="evenodd"/><path fill="#7F4BB4" fill-rule="evenodd" d="M258.719 165.052c-3.948.783-7.846 1.652-11.616 2.497-11.135 2.497-20.752 4.657-28.235 3.857-11.493-1.223-20.604-7.328-23.2-15.562-1.829-5.8-1.328-15.096 11.459-26.456.186-.163.394-.311.58-.474a105.753 105.753 0 00-25.877-5.055c-14.185 9.675-32.06 15.185-38.932 12.106-2.14-.961-4.53-2.608-6.737-4.904-.203.171-.407.339-.616.505 2.544 2.405 4.397 5.774 5.198 9.709 1.625 7.984-1.143 16.526-7.408 22.848-5.453 5.507-12.322 8.665-18.842 8.665-4.563 0-8.459-1.604-11.376-4.404-12.896 21.207-20.382 46.127-20.382 72.841a140.49 140.49 0 004.647 35.935c8.683 7.204 21.139 28.837 29.811 45.563 16.565 10.644 36.206 16.839 57.298 16.839 11.654 0 22.863-1.907 33.367-5.386a656.901 656.901 0 00-1.339-5.742c-4.829-20.379-10.308-43.48 8.996-56.47 3.7-2.492 7.723-3.757 11.953-3.757 13.34 0 25.727 12.488 34.444 25.558 12.299-17.587 19.55-39.03 19.55-62.196 0-25.105-8.508-48.184-22.743-66.517z" clip-rule="evenodd"/><path fill="#fff" fill-rule="evenodd" d="M165.281 314.457c-5.926.387-10.747.042-16.636-1.19-1.777-17.877-2.922-40.208 5.998-79.133 16.205 42.37 34.054 73.441 34.182 73.612-3.035 1.462-12.265 5.908-23.544 6.711zm-27.176-4.514c-46.366-21.273-54.877-71.698-39.319-110.515.592 38.414 11.248 68.365 39.319 110.515zm62.758-9.483c7.355-32 19.581-62.591 26.774-94.639 1.388-6.195 2.591-15.836.428-26.585 21.428 33.794 18.968 86.284-27.202 121.224zm-95.557-113.91c20.93-32.522 60.956-58.972 104.887-26.49-.295-.013-28.162 1.278-7.908 31.527 10.947 16.346 11.644 29.461 2.985 56.13-3.126 13.149-4.07 17.118-6.862 30.657-13.366-32.251-24.275-59.707-32.89-94.818 7.574-1.123 16.155-2.395 11.746-7.315-.556-.619-40.453 3.377-40.834 3.443-3.063.526-3.601 4.167-3.606 4.201-.318 2.873.198 2.844 8.842 2.318 2.278 12.395 3.316 18.056 8.952 36.149-4.068 17.076-8.279 34.734-8.855 62.078-18.18-36.531-25.457-61.905-26.845-93.623 2.58-1.583 6.027-.961 8.307-3.319 1.555-1.609 2.312-5.239.373-5.66-6.875-1.496-12.121 3.421-18.292 4.722zm63.171-48.067c-68.78 5.731-113.442 110.367-52.612 165.125 61.652 55.493 137.821-16.21 135.191-82.739-2.043-51.579-44.346-84.241-82.579-82.386z" clip-rule="evenodd"/><g clip-path="url(#a)"><path fill="#7F4BB4" d="M178.013 322.03c-50.732 2.503-86.953-35.816-86.128-91.071 6.99 17.134 19.953 48.932 86.128 91.071zm17.703-4.379c-24.74-16.309-90.42-59.685-100.124-110.42-.867-4.467 20.795-61.439 65.484-70.915 15.745-3.332 40.35-1.98 68.225 23.503a1649.71 1649.71 0 01-10.525 11.54c-40.508-39.928-90.298-26.609-113.342 30.375 12.73 33.231 38.832 61.61 90.094 97.879 24.662-13.394 39.263-35.137 43.413-64.673-13.413 1.331-22.267 2.175-44.09 4.544-.554-5.699-1.308-13.319-1.765-19.076 17.969-1.999 36.586-4.031 63.178-6.424 5.975 70.357-44.844 97.143-60.548 103.667zm-23.131-198.547c-73.902 7.386-133.85 143.152-47.483 206.633 76.951 56.59 168.291-24.923 156.168-111.907-8.709-62.521-69.162-97.326-108.685-94.726z"/><path fill="#fff" d="M91.893 230.994c-.825 55.255 35.388 93.539 86.127 91.07-22.71-14.862-69.988-45.743-86.127-91.07z"/><path fill="#fff" d="M167.993 135.277c-25.613 2.542-57.933 25.758-72.4 71.954 13.162 48.051 55.889 81.456 100.123 110.42 15.704-6.524 66.523-33.31 60.549-103.667-14.189 1.282-30.267 2.759-63.178 6.424.518 5.707 1.202 13.342 1.764 19.076 20.366-2.196 25.497-2.735 44.09-4.544-4.15 29.536-18.751 51.28-43.413 64.673-69.664-49.598-86.357-82.618-90.094-97.879-.083-.383 15.936-44.481 53.389-52.048 14.377-2.924 36.441-1.526 59.96 21.708 3.18-3.46 7.388-8.054 10.526-11.541-19.594-17.944-40.199-26.172-61.316-24.576z"/></g><path fill="#FFD200" fill-rule="evenodd" d="M265.21 325.995c-.041-.166-.078-.327-.12-.496a128.075 128.075 0 00-1.249-4.654c-3.875-14.086-22.3-42.102-36.373-42.102-2.163 0-4.18.651-6.165 1.986-12.323 8.298-9.836 23.306-4.631 45.255 1.286 5.429 2.616 11.044 3.415 16.286 1.041 6.819.788 14.44.545 21.804-.376 11.437-.764 23.266 4.12 28.363 2.137 2.231 5.466 3.316 10.18 3.316 1.365 0 2.649-.103 3.89-.261.379-.047.736-.118 1.101-.179a27.397 27.397 0 003.572-.827c.84-.258 1.644-.556 2.416-.885.227-.095.467-.179.689-.279a25.329 25.329 0 002.823-1.512c.086-.055.164-.118.251-.174a25.694 25.694 0 002.228-1.609c.206-.166.401-.337.602-.508a28.031 28.031 0 001.649-1.528c.175-.177.355-.353.525-.532a31.41 31.41 0 001.654-1.907c.06-.077.128-.148.185-.224a32.553 32.553 0 001.599-2.242c.118-.176.22-.355.329-.529a38.06 38.06 0 001.42-2.46c.24-.459.467-.912.68-1.362.134-.282.274-.566.4-.846.177-.392.331-.769.488-1.148.328-.793.623-1.559.868-2.265a3.09 3.09 0 00.045-.119c.172-.505.328-.985.464-1.43.592-1.947.861-3.311.9-3.54a4.85 4.85 0 01.165-.68c3.911-12.498 5.481-23.01 2.296-38.485-.282-1.37-.606-2.781-.961-4.227z" clip-rule="evenodd"/><path fill="#000" fill-rule="evenodd" d="M114.516 374.121c-2.009 0-4.229-.29-6.601-.864-26.468-6.416-62.695-46.54-67.277-68.892-2.048-9.996-.167-19.236 5.297-26.011 4.829-5.984 12.13-9.416 20.03-9.416 7.112 0 14.339 2.694 20.9 7.791 12.887 10.006 34.745 53.876 39.463 64.759 1.962 4.528 5.857 18.12.399 26.548-1.798 2.777-5.378 6.085-12.211 6.085zM65.964 276.84c-5.617 0-10.577 2.31-13.955 6.5-3.953 4.902-5.268 11.798-3.705 19.423 3.986 19.455 38.238 57.187 61.438 62.808 1.771.429 3.379.648 4.774.648 3.617 0 4.963-1.43 5.662-2.508 2.828-4.369 1.224-13.873-1.02-19.051-6.424-14.822-26.78-53.678-37.067-61.67-5.179-4.025-10.754-6.15-16.127-6.15z" clip-rule="evenodd"/><path fill="#FFD200" fill-rule="evenodd" d="M52.009 283.341c-3.953 4.901-5.268 11.797-3.705 19.423 3.986 19.454 38.238 57.186 61.438 62.807 1.771.43 3.379.648 4.775.648 3.616 0 4.962-1.43 5.661-2.507 2.828-4.37 1.224-13.873-1.02-19.052-6.423-14.821-26.78-53.678-37.067-61.67-5.179-4.025-10.754-6.15-16.126-6.15-5.618 0-10.578 2.31-13.956 6.501z" clip-rule="evenodd"/><path fill="#000" fill-rule="evenodd" d="M114.493 172.787c-8.527 0-14.838-5.457-16.471-14.244-1.062-5.721.955-12.038 5.677-17.785 6.134-7.459 15.816-12.875 23.022-12.875 1.623 0 3.116.269 4.433.801 4.793 1.936 8.378 6.643 9.589 12.59 1.625 7.984-1.143 16.526-7.408 22.847-5.452 5.508-12.322 8.666-18.842 8.666zm12.228-37.002c-4.213 0-11.91 3.83-16.998 10.02-1.857 2.262-4.852 6.735-4.004 11.284 1.197 6.442 5.432 7.796 8.774 7.796 4.393 0 9.369-2.373 13.309-6.353 4.396-4.438 6.368-10.294 5.275-15.669-.678-3.338-2.484-5.895-4.829-6.841-.384-.155-.911-.237-1.527-.237z" clip-rule="evenodd"/><path fill="#FFD200" fill-rule="evenodd" d="M105.719 157.089c1.197 6.443 5.432 7.797 8.774 7.797 4.393 0 9.369-2.373 13.309-6.353 4.396-4.439 6.368-10.294 5.275-15.67-.678-3.337-2.484-5.895-4.829-6.841-.384-.155-.911-.237-1.527-.237-4.213 0-11.91 3.83-16.998 10.02-1.857 2.263-4.852 6.735-4.004 11.284z" clip-rule="evenodd"/><path fill="#F80" fill-rule="evenodd" d="M390.716 52.39c-15.581 0-37.896-.131-51.737-1.264-1.206-.097-2.27-.097-2.959-.04 1.02 1.684 3.522 4.631 7.519 7.995l1.008.861c27.188 23.403 47.654 28.318 60.034 28.32h.005c4.422 0 8.701-.618 12.727-1.838 19.101-5.784 30.834-17.734 35.441-26.988 1.72-3.458 2.069-5.729 2.069-6.795-2.598-.266-9.356-.4-20.141-.4-5.74 0-12.268.03-19.211.068-7.898.04-16.335.081-24.755.081zM102.718 115.137c-.365.082-.477.209-.48.209.037-.014.269.429 1.135 1.019 1.586 1.082 8.051 4.125 25.558-.598-.537-4.098-.334-9.211 1.427-15.285-10.23 7.183-21.767 13.338-27.64 14.655zM346.334 367.106c-7.825 4.72-15.49 8.476-22.845 11.415-24.139 44.589-76.576 78.849-122.073 79.721-23.5.39-41.706-8.555-51.597-25.347-11.096-18.841-28.044-25.797-39.07-22.932-7.389 1.923-11.624 8.145-11.924 17.524-.263 8.229 6.933 19.208 19.247 29.369 22.141 18.275 60.134 32.968 95.085 24.607 60.42-14.445 114.689-61.593 133.177-114.357z" clip-rule="evenodd"/><path fill="#FFD200" fill-rule="evenodd" d="M386.918 121.383c-4.376-12.482-9.75-23.843-15.975-34.055-9.357-4.601-19.879-11.392-31.476-21.372l-.937-.806c-12.823-10.783-11.054-15.712-10.475-17.332.464-1.298 1.289-2.312 2.426-3.07-17.384-11.24-37.341-17.527-59.139-18.191C217.17 24.9 169.693 48.17 144.315 88.807c-6.938 11.112-9.336 21.211-6.928 29.21 1.754 5.826 5.777 9.419 8.689 10.726 4.931 2.218 36.305-8.777 45.421-25.511a3.925 3.925 0 012.431-1.914 3.888 3.888 0 013.05.455c21.405 13.297 45.466 7.217 66.333.477a3.909 3.909 0 014.921 2.56 3.975 3.975 0 01-.371 3.206c13.792-.366 27.63 1.757 39.825 6.616 2.009.801 2.995 3.095 2.202 5.126-.793 2.031-3.068 3.029-5.077 2.223-30.004-11.953-70.638-6.097-92.512 13.339-7.501 6.664-10.76 13.101-9.174 18.124 1.631 5.163 8.284 9.225 16.563 10.102 6.222.653 15.69-1.462 25.722-3.712 15.459-3.463 32.987-7.391 48.586-4.13 25.282 5.281 42.056 20.593 67.442 43.769l3.094 2.824a3.978 3.978 0 01.279 5.579 3.878 3.878 0 01-2.904 1.304c-.887 0-1.763-.327-2.489-.935a145.283 145.283 0 013.791 32.98c0 13.402-1.842 26.643-5.442 39.394 4.031 2.302 7.417 5.068 9.844 8.239 1.323 1.725 1.007 4.209-.702 5.539a3.886 3.886 0 01-5.49-.708c-6.76-8.832-23.977-13.979-40.985-12.248-12.385 1.267-34.954 7.256-47.743 32.909a45.313 45.313 0 011.187 3.608c6.705 23.201 5.119 37.277.049 53.592-.498 2.752-1.463 6.034-2.909 9.453 17.223.05 47.623-3.769 79.973-26.256 61.25-42.576 55.863-176.496 35.927-233.364z" clip-rule="evenodd"/><path fill="#000" fill-rule="evenodd" d="M457.652 45.113c-1.892-.479-6.397-.774-22.97-.774-5.751 0-12.291.032-19.25.068-7.887.04-16.306.082-24.715.082-14.408 0-34.604-.113-48.258-1.027-20.235-15.375-44.257-23.993-70.882-24.807-56.771-1.757-106.659 22.744-133.595 65.497-10.36 10.322-30.273 21.77-36.96 23.274-3.097.693-5.432 2.792-6.256 5.61-.83 2.853.063 5.974 2.382 8.347 2.126 2.165 6.551 4.873 15.404 4.873 4.761 0 10.825-.801 18.48-2.871 2.875 6.58 7.83 10.768 11.866 12.58 9.643 4.322 40.978-8.218 53.324-25.529 9.559 5.124 19.505 7.078 29.571 7.062-6.979 3.211-13.346 7.162-18.665 11.89-12.787 11.36-13.288 20.656-11.459 26.456 2.596 8.234 11.706 14.339 23.199 15.562 7.483.8 17.1-1.36 28.236-3.857 14.694-3.29 31.35-7.019 45.306-4.106 20.758 4.335 35.193 15.983 56.134 34.935 4.537 13.775 6.838 28.189 6.838 42.847 0 12.251-1.633 24.356-4.814 36.035-9.017-3.371-19.956-4.807-30.92-3.682-21.65 2.215-39.856 13.694-50.934 31.798-8.135-16.054-23.901-37.169-41.246-37.169-4.229 0-8.253 1.265-11.952 3.757-19.305 12.99-13.826 36.091-8.996 56.47 1.296 5.465 2.52 10.628 3.253 15.44.89 5.848.655 12.967.431 19.85-.449 13.634-.914 27.728 7.047 36.038 4.148 4.331 10.097 6.527 17.681 6.527 15.686 0 25.827-8.249 31.906-17.471 1.386.053 2.852.09 4.454.09 10.095 0 24.324-1.278 40.704-6.322-24.476 38.398-70.518 66.985-110.728 67.757-14.421.316-33.965-3.227-44.722-21.488-13.064-22.181-33.915-30.149-47.749-26.543-10.895 2.832-17.379 11.919-17.793 24.92-.347 10.831 7.715 23.859 22.114 35.741 18.931 15.622 48.784 28.779 79.221 28.779 7.556 0 15.151-.811 22.624-2.597 66.382-15.875 125.678-69.885 141.64-128.76 35.901-25.895 47.328-77.366 50.564-116.215 4.122-49.524-3.494-98.685-12.871-125.433a193.78 193.78 0 00-11.555-26.493c8.719 2.953 16.064 3.911 21.84 3.911h.005c5.185 0 10.22-.732 14.976-2.17 30.531-9.248 43.305-32.037 43.086-41.622-.086-3.777-1.957-6.493-4.996-7.26zm-328.721 70.655c-17.506 4.722-23.972 1.68-25.558.598-.866-.59-1.098-1.033-1.135-1.02.003 0 .115-.126.48-.208 5.873-1.317 17.411-7.473 27.641-14.655-1.761 6.074-1.965 11.186-1.428 15.285zm134.944 252.94a4.837 4.837 0 00-.165.679c-.19 1.075-4.92 26.366-28.778 26.366-4.714 0-8.043-1.085-10.18-3.316-4.884-5.097-4.496-16.926-4.12-28.363.243-7.364.496-14.984-.545-21.804-.799-5.242-2.129-10.857-3.415-16.286-5.206-21.949-7.692-36.957 4.631-45.255 1.985-1.335 4.002-1.986 6.165-1.986 14.073 0 32.498 28.016 36.373 42.102 6.055 20.962 4.686 32.991.034 47.863zm-50.718 112.756c-34.951 8.36-72.944-6.333-95.084-24.607-12.315-10.162-19.51-21.141-19.247-29.369.3-9.38 4.534-15.601 11.923-17.524 11.026-2.866 27.974 4.09 39.071 22.931 9.891 16.792 28.097 25.737 51.596 25.347 45.497-.872 97.934-35.132 122.073-79.72 7.355-2.94 15.02-6.696 22.845-11.416-18.488 52.764-72.756 99.913-133.177 114.358zm173.761-360.081c19.936 56.868 25.323 190.788-35.927 233.364-32.35 22.487-62.75 26.306-79.973 26.256 1.446-3.419 2.411-6.701 2.909-9.453 5.07-16.315 6.656-30.391-.049-53.592a45.313 45.313 0 00-1.187-3.608c12.789-25.653 35.358-31.642 47.743-32.909 17.008-1.731 34.225 3.416 40.985 12.248a3.886 3.886 0 005.49.708c1.709-1.33 2.025-3.814.702-5.539-2.427-3.171-5.813-5.937-9.844-8.239a144.907 144.907 0 005.442-39.394c0-11.179-1.286-22.223-3.791-32.98.726.608 1.602.935 2.489.935a3.878 3.878 0 002.904-1.304 3.978 3.978 0 00-.279-5.579l-3.094-2.824c-25.386-23.176-42.16-38.488-67.442-43.769-15.599-3.261-33.127.667-48.586 4.13-10.032 2.25-19.5 4.365-25.722 3.712-8.279-.877-14.932-4.939-16.563-10.102-1.586-5.023 1.673-11.46 9.174-18.124 21.874-19.436 62.508-25.292 92.512-13.339 2.009.806 4.284-.192 5.077-2.223.793-2.031-.193-4.325-2.202-5.126-12.195-4.859-26.033-6.982-39.825-6.616a3.975 3.975 0 00.371-3.206 3.909 3.909 0 00-4.921-2.56c-20.867 6.74-44.928 12.82-66.333-.477a3.888 3.888 0 00-3.05-.455 3.925 3.925 0 00-2.431 1.914c-9.116 16.734-40.49 27.729-45.421 25.511-2.912-1.307-6.935-4.9-8.689-10.726-2.408-7.999-.01-18.098 6.928-29.21C169.693 48.17 217.17 24.9 271.342 26.556c21.798.664 41.755 6.951 59.139 18.19-1.137.759-1.962 1.773-2.426 3.072-.579 1.62-2.348 6.548 10.475 17.331l.937.806c11.597 9.98 22.119 16.77 31.476 21.372 6.225 10.212 11.599 21.573 15.975 34.055zm65.837-61.946c-4.608 9.253-16.341 21.204-35.442 26.988-4.025 1.22-8.304 1.838-12.727 1.838h-.005c-12.38-.002-32.845-4.917-60.034-28.32l-1.007-.862c-3.998-3.363-6.5-6.31-7.52-7.994.689-.058 1.754-.058 2.959.04 13.841 1.132 36.156 1.264 51.738 1.264 8.419 0 16.857-.042 24.754-.082 6.943-.036 13.471-.068 19.211-.068 10.786 0 17.543.134 20.142.4 0 1.067-.35 3.338-2.069 6.796z" clip-rule="evenodd"/><path fill="#000" fill-rule="evenodd" d="M187.969 82.308c-6.223 4.712-4.347 10.538 2.609 11.415 6.958.877 7.501 1.344 13.917-3.513 6.956-5.268 7.827-14.05 0-13.17-7.827.88-13.045 2.633-16.526 5.267zM169.706 85.821c0 4.365-3.504 7.902-7.827 7.902-4.321 0-7.827-3.537-7.827-7.902 0-4.364 3.506-7.902 7.827-7.902 4.323 0 7.827 3.538 7.827 7.902zM260.154 63.872c0 4.365-3.504 7.902-7.827 7.902s-7.827-3.537-7.827-7.902c0-4.364 3.504-7.902 7.827-7.902s7.827 3.538 7.827 7.902z" clip-rule="evenodd"/><defs><clipPath id="a"><path fill="#fff" d="M0 0h202.942v224.576H0z" transform="rotate(-12.329 693.98 -199.144)"/></clipPath></defs></svg>
