
<svg width="512" height="512" viewBox="0 0 512 512" fill="none" xmlns="http://www.w3.org/2000/svg">
<path fill-rule="evenodd" clip-rule="evenodd" d="M459.551 37.4456C456.838 36.7634 452.413 36.4341 434.622 36.4341C428.877 36.4341 422.346 36.4684 415.403 36.5026C407.566 36.5421 399.198 36.5843 390.847 36.5843C377.421 36.5843 358.62 36.4868 345.241 35.7124C323.812 19.9848 299.128 11.5903 271.814 10.7579C212.622 8.9273 160.214 34.7615 131.835 79.1707C122.244 88.3791 104.2 98.6175 99.3212 99.7106C91.1418 101.546 85.8428 108.779 86.7273 116.905C87.3639 122.763 91.4888 129.346 100.694 132.406C99.6317 133.46 98.6194 134.566 97.6775 135.712C91.4393 143.301 88.8302 151.927 90.3304 160.005C90.6331 161.625 91.0531 163.174 91.588 164.646C78.0939 187.836 70.9947 214.16 70.9947 241.225C70.9947 248.06 71.4513 254.861 72.3566 261.596C70.2328 261.225 68.0986 261.035 65.9644 261.035C55.7004 261.035 46.1852 265.528 39.866 273.362C32.8868 282.017 30.4395 293.596 32.9755 305.966C38.1388 331.16 75.9441 373.633 106.089 380.94C109.058 381.656 111.894 382.022 114.516 382.022C122.581 382.022 129.242 378.59 133.278 372.358C134.559 370.377 135.485 368.275 136.127 366.126C156.7 380.45 180.481 389.321 205.674 391.897C211.132 409.877 225.787 412.874 234.932 412.874C248.719 412.874 260.629 407.216 269.121 396.786C269.888 396.796 270.658 396.804 271.43 396.804C277.259 396.804 284.502 396.401 292.788 395.111C266.264 425.159 227.948 442.451 199.733 442.457H199.726C187.834 442.457 171.858 439.393 163.274 424.817C151.917 405.531 133.711 393.549 115.766 393.549C96.9157 393.549 83.8182 406.985 83.179 426.979C82.832 437.802 88.4493 449.574 99.4256 461.016C117.89 480.268 153.694 499.693 192.068 499.693C200.547 499.693 208.857 498.735 216.765 496.843C284.768 480.584 345.697 425.617 363.42 365.162C428.329 315.1 423.184 177.474 401.674 116.11C400.182 111.851 398.57 107.678 396.84 103.606C399.457 103.912 402.045 104.065 404.591 104.065C410.537 104.065 416.33 103.222 421.811 101.562C455.549 91.345 470.791 66.0613 470.473 52.188C470.306 44.8655 466.016 39.0787 459.551 37.4456Z" fill="black"/>
<path fill-rule="evenodd" clip-rule="evenodd" d="M348.544 198.377C327.603 179.426 313.167 167.778 292.41 163.443C278.454 160.529 261.798 164.259 247.103 167.549C235.968 170.046 226.351 172.206 218.868 171.405C207.375 170.183 198.264 164.077 195.668 155.844C193.839 150.044 194.34 140.748 207.127 129.388C212.447 124.66 218.813 120.709 225.793 117.498C215.727 117.514 205.781 115.559 196.222 110.436C183.875 127.747 152.541 140.287 142.898 135.965C140.756 135.003 138.363 133.355 136.153 131.055C135.944 131.218 135.751 131.397 135.543 131.563C138.087 133.968 139.942 137.337 140.743 141.275C142.368 149.259 139.6 157.801 133.335 164.122C127.882 169.63 121.013 172.788 114.493 172.788C109.932 172.788 106.039 171.187 103.123 168.389C90.2233 189.596 82.7354 214.511 82.7354 241.225C82.7354 253.662 84.3817 265.705 87.4056 277.181C100.352 287.954 121.676 330.751 126.327 341.488C126.581 342.075 126.868 342.818 127.162 343.676C149.352 364.39 178.263 377.879 210.24 380.371C209.838 375.031 210.018 369.342 210.203 363.724C210.428 356.841 210.663 349.721 209.773 343.874C209.04 339.062 207.816 333.899 206.52 328.433C201.69 308.054 196.211 284.954 215.516 271.963C219.215 269.471 223.238 268.207 227.468 268.207C244.813 268.207 260.579 289.321 268.714 305.375C279.792 287.272 297.998 275.793 319.648 273.578C330.612 272.453 341.551 273.889 350.568 277.26C353.749 265.581 355.382 253.475 355.382 241.225C355.382 226.566 353.081 212.153 348.544 198.377Z" fill="#663399"/>
<path fill-rule="evenodd" clip-rule="evenodd" d="M258.719 165.052C254.771 165.835 250.873 166.704 247.103 167.549C235.968 170.046 226.351 172.206 218.868 171.406C207.375 170.183 198.264 164.078 195.668 155.844C193.839 150.044 194.34 140.748 207.127 129.388C207.313 129.225 207.521 129.077 207.707 128.914C199.475 126.204 190.805 124.473 181.83 123.859C167.645 133.534 149.77 139.044 142.898 135.965C140.758 135.004 138.368 133.357 136.161 131.061C135.958 131.232 135.754 131.4 135.545 131.566C138.089 133.971 139.942 137.34 140.743 141.275C142.368 149.259 139.6 157.801 133.335 164.123C127.882 169.63 121.013 172.788 114.493 172.788C109.93 172.788 106.034 171.184 103.117 168.384C90.2207 189.591 82.7354 214.511 82.7354 241.225C82.7354 253.652 84.353 265.697 87.3821 277.16C96.065 284.364 108.521 305.997 117.193 322.723C133.758 333.367 153.399 339.562 174.491 339.562C186.145 339.562 197.354 337.655 207.858 334.176C207.43 332.298 206.984 330.393 206.519 328.434C201.69 308.055 196.211 284.954 215.515 271.964C219.215 269.472 223.238 268.207 227.468 268.207C240.808 268.207 253.195 280.695 261.912 293.765C274.211 276.178 281.462 254.735 281.462 231.569C281.462 206.464 272.954 183.385 258.719 165.052Z" fill="#7F4BB4"/>
<path fill-rule="evenodd" clip-rule="evenodd" d="M165.281 314.457C159.355 314.844 154.534 314.499 148.645 313.267C146.868 295.39 145.723 273.059 154.643 234.134C170.848 276.504 188.697 307.575 188.825 307.746C185.79 309.208 176.56 313.654 165.281 314.457ZM138.105 309.943C91.739 288.67 83.2283 238.245 98.7861 199.428C99.3784 237.842 110.034 267.793 138.105 309.943ZM200.863 300.46C208.218 268.46 220.444 237.869 227.637 205.821C229.025 199.626 230.228 189.985 228.065 179.236C249.493 213.03 247.033 265.52 200.863 300.46ZM105.306 186.55C126.236 154.028 166.262 127.578 210.193 160.06C209.898 160.047 182.031 161.338 202.285 191.587C213.232 207.933 213.929 221.048 205.27 247.717C202.144 260.866 201.2 264.835 198.408 278.374C185.042 246.123 174.133 218.667 165.518 183.556C173.092 182.433 181.673 181.161 177.264 176.241C176.708 175.622 136.811 179.618 136.43 179.684C133.367 180.21 132.829 183.851 132.824 183.885C132.506 186.758 133.022 186.729 141.666 186.203C143.944 198.598 144.982 204.259 150.618 222.352C146.55 239.428 142.339 257.086 141.763 284.43C123.583 247.899 116.306 222.525 114.918 190.807C117.498 189.224 120.945 189.846 123.225 187.488C124.78 185.879 125.537 182.249 123.598 181.828C116.723 180.332 111.477 185.249 105.306 186.55ZM168.477 138.483C99.6967 144.214 55.0348 248.85 115.865 303.608C177.517 359.101 253.686 287.398 251.056 220.869C249.013 169.29 206.71 136.628 168.477 138.483Z" fill="white"/>
<g clip-path="url(#clip0)">
<path d="M178.013 322.03C127.281 324.533 91.0605 286.214 91.8855 230.959C98.8742 248.093 111.838 279.891 178.013 322.03ZM195.716 317.651C170.976 301.342 105.296 257.966 95.5923 207.231C94.7254 202.764 116.387 145.792 161.076 136.316C176.821 132.984 201.426 134.336 229.301 159.819C226.164 163.305 221.956 167.899 218.776 171.359C178.268 131.431 128.478 144.75 105.434 201.734C118.164 234.965 144.266 263.344 195.528 299.613C220.19 286.219 234.791 264.476 238.941 234.94C225.528 236.271 216.674 237.115 194.851 239.484C194.297 233.785 193.543 226.165 193.086 220.408C211.055 218.409 229.672 216.377 256.264 213.984C262.239 284.341 211.42 311.127 195.716 317.651ZM172.585 119.104C98.6829 126.49 38.7358 262.256 125.102 325.737C202.053 382.327 293.393 300.814 281.27 213.83C272.561 151.309 212.108 116.504 172.585 119.104Z" fill="#7F4BB4"/>
<path d="M91.8934 230.994C91.0682 286.249 127.281 324.533 178.02 322.064C155.31 307.202 108.032 276.321 91.8934 230.994Z" fill="white"/>
<path d="M167.993 135.277C142.38 137.819 110.06 161.035 95.5924 207.231C108.755 255.282 151.482 288.687 195.716 317.651C211.42 311.127 262.239 284.341 256.265 213.984C242.076 215.266 225.998 216.743 193.087 220.408C193.605 226.115 194.289 233.75 194.851 239.484C215.217 237.288 220.348 236.749 238.941 234.94C234.791 264.476 220.19 286.22 195.528 299.613C125.864 250.015 109.171 216.995 105.434 201.734C105.351 201.351 121.37 157.253 158.823 149.686C173.2 146.762 195.264 148.16 218.783 171.394C221.963 167.934 226.171 163.34 229.309 159.853C209.715 141.909 189.11 133.681 167.993 135.277Z" fill="white"/>
</g>
<path fill-rule="evenodd" clip-rule="evenodd" d="M265.21 325.995C265.169 325.829 265.132 325.668 265.09 325.499C264.717 323.998 264.305 322.452 263.841 320.845C259.966 306.759 241.541 278.743 227.468 278.743C225.305 278.743 223.288 279.394 221.303 280.729C208.98 289.027 211.467 304.035 216.672 325.984C217.958 331.413 219.288 337.028 220.087 342.27C221.128 349.089 220.875 356.71 220.632 364.074C220.256 375.511 219.868 387.34 224.752 392.437C226.889 394.668 230.218 395.753 234.932 395.753C236.297 395.753 237.581 395.65 238.822 395.492C239.201 395.445 239.558 395.374 239.923 395.313C240.79 395.171 241.627 394.997 242.433 394.786C242.791 394.692 243.148 394.594 243.495 394.486C244.335 394.228 245.139 393.93 245.911 393.601C246.138 393.506 246.378 393.422 246.6 393.322C247.592 392.866 248.536 392.363 249.423 391.81C249.509 391.755 249.587 391.692 249.674 391.636C250.459 391.131 251.2 390.593 251.902 390.027C252.108 389.861 252.303 389.69 252.504 389.519C253.081 389.026 253.631 388.515 254.153 387.991C254.328 387.814 254.508 387.638 254.678 387.459C255.262 386.837 255.815 386.2 256.332 385.552C256.392 385.475 256.46 385.404 256.517 385.328C257.094 384.59 257.623 383.84 258.116 383.086C258.234 382.91 258.336 382.731 258.445 382.557C258.795 381.998 259.129 381.44 259.437 380.887C259.585 380.621 259.726 380.36 259.865 380.097C260.105 379.638 260.332 379.185 260.545 378.735C260.679 378.453 260.819 378.169 260.945 377.889C261.122 377.497 261.276 377.12 261.433 376.741C261.761 375.948 262.056 375.182 262.301 374.476C262.317 374.436 262.333 374.394 262.346 374.357C262.518 373.852 262.674 373.372 262.81 372.927C263.402 370.98 263.671 369.616 263.71 369.387C263.749 369.16 263.804 368.923 263.875 368.707C267.786 356.209 269.356 345.697 266.171 330.222C265.889 328.852 265.565 327.441 265.21 325.995Z" fill="#FFD200"/>
<path fill-rule="evenodd" clip-rule="evenodd" d="M114.516 374.121C112.507 374.121 110.287 373.831 107.915 373.257C81.4466 366.841 45.2198 326.717 40.6383 304.365C38.5902 294.369 40.4713 285.129 45.9347 278.354C50.764 272.37 58.0642 268.938 65.9644 268.938C73.0767 268.938 80.3038 271.632 86.8656 276.729C99.7517 286.735 121.61 330.605 126.328 341.488C128.29 346.016 132.185 359.608 126.727 368.036C124.929 370.813 121.349 374.121 114.516 374.121ZM65.9644 276.84C60.3471 276.84 55.3873 279.15 52.0086 283.34C48.0558 288.242 46.7409 295.138 48.3037 302.763C52.2903 322.218 86.542 359.95 109.742 365.571C111.513 366 113.121 366.219 114.516 366.219C118.133 366.219 119.479 364.789 120.178 363.711C123.006 359.342 121.402 349.838 119.158 344.66C112.734 329.838 92.3785 290.982 82.091 282.99C76.912 278.965 71.3365 276.84 65.9644 276.84Z" fill="black"/>
<path fill-rule="evenodd" clip-rule="evenodd" d="M52.0087 283.341C48.056 288.242 46.741 295.138 48.3038 302.764C52.2905 322.218 86.5422 359.95 109.742 365.571C111.513 366.001 113.121 366.219 114.517 366.219C118.133 366.219 119.479 364.789 120.178 363.712C123.006 359.342 121.402 349.839 119.158 344.66C112.735 329.839 92.3787 290.982 82.0911 282.99C76.9122 278.965 71.3366 276.84 65.9646 276.84C60.3473 276.84 55.3874 279.15 52.0087 283.341Z" fill="#FFD200"/>
<path fill-rule="evenodd" clip-rule="evenodd" d="M114.493 172.787C105.966 172.787 99.6551 167.33 98.0218 158.543C96.9599 152.822 98.9767 146.505 103.699 140.758C109.833 133.299 119.515 127.883 126.721 127.883C128.344 127.883 129.837 128.152 131.154 128.684C135.947 130.62 139.532 135.327 140.743 141.274C142.368 149.258 139.6 157.8 133.335 164.121C127.883 169.629 121.013 172.787 114.493 172.787ZM126.721 135.785C122.508 135.785 114.811 139.615 109.723 145.805C107.866 148.067 104.871 152.54 105.719 157.089C106.916 163.531 111.151 164.885 114.493 164.885C118.886 164.885 123.862 162.512 127.802 158.532C132.198 154.094 134.17 148.238 133.077 142.863C132.399 139.525 130.593 136.968 128.248 136.022C127.864 135.867 127.337 135.785 126.721 135.785Z" fill="black"/>
<path fill-rule="evenodd" clip-rule="evenodd" d="M105.719 157.089C106.916 163.532 111.151 164.886 114.493 164.886C118.886 164.886 123.862 162.513 127.802 158.533C132.198 154.094 134.17 148.239 133.077 142.863C132.399 139.526 130.593 136.968 128.248 136.022C127.864 135.867 127.337 135.785 126.721 135.785C122.508 135.785 114.811 139.615 109.723 145.805C107.866 148.068 104.871 152.54 105.719 157.089Z" fill="#FFD200"/>
<path fill-rule="evenodd" clip-rule="evenodd" d="M390.716 52.3904C375.135 52.3904 352.82 52.2587 338.979 51.1261C337.773 51.0286 336.709 51.0286 336.02 51.0866C337.04 52.7697 339.542 55.7172 343.539 59.0808L344.547 59.9421C371.735 83.3452 392.201 88.2602 404.581 88.2628H404.586C409.008 88.2628 413.287 87.6438 417.313 86.4243C436.414 80.64 448.147 68.6896 452.754 59.4364C454.474 55.9779 454.823 53.7074 454.823 52.6407C452.225 52.3746 445.467 52.2403 434.682 52.2403C428.942 52.2403 422.414 52.2719 415.471 52.3088C407.573 52.3483 399.136 52.3904 390.716 52.3904Z" fill="#FF8800"/>
<path fill-rule="evenodd" clip-rule="evenodd" d="M102.718 115.137C102.353 115.219 102.241 115.346 102.238 115.346C102.275 115.332 102.507 115.775 103.373 116.365C104.959 117.447 111.424 120.49 128.931 115.767C128.394 111.669 128.597 106.556 130.358 100.482C120.128 107.665 108.591 113.82 102.718 115.137Z" fill="#FF8800"/>
<path fill-rule="evenodd" clip-rule="evenodd" d="M346.334 367.106C338.509 371.826 330.844 375.582 323.489 378.521C299.35 423.11 246.913 457.37 201.416 458.242C177.916 458.632 159.71 449.687 149.819 432.895C138.723 414.054 121.775 407.098 110.749 409.963C103.36 411.886 99.1254 418.108 98.8254 427.487C98.5618 435.716 105.758 446.695 118.072 456.856C140.213 475.131 178.206 489.824 213.157 481.463C273.577 467.018 327.846 419.87 346.334 367.106Z" fill="#FF8800"/>
<path fill-rule="evenodd" clip-rule="evenodd" d="M386.918 121.383C382.542 108.901 377.168 97.5404 370.943 87.3284C361.586 82.7268 351.064 75.9364 339.467 65.9562L338.53 65.1502C325.707 54.3666 327.476 49.4384 328.055 47.8185C328.519 46.5199 329.344 45.5058 330.481 44.7472C313.097 33.508 293.14 27.2206 271.342 26.5569C217.17 24.9001 169.693 48.1714 144.315 88.8061C137.377 99.9189 134.979 110.018 137.387 118.017C139.141 123.843 143.164 127.436 146.076 128.743C151.007 130.961 182.381 119.966 191.497 103.232C192.016 102.287 192.893 101.591 193.928 101.318C194.969 101.044 196.068 101.207 196.978 101.773C218.383 115.07 242.444 108.99 263.311 102.25C265.377 101.589 267.572 102.732 268.232 104.81C268.584 105.927 268.407 107.078 267.861 108.016C281.653 107.65 295.491 109.773 307.686 114.632C309.695 115.433 310.681 117.727 309.888 119.758C309.095 121.789 306.82 122.787 304.811 121.981C274.807 110.028 234.173 115.884 212.299 135.32C204.798 141.984 201.539 148.421 203.125 153.444C204.756 158.607 211.409 162.669 219.688 163.546C225.91 164.199 235.378 162.084 245.41 159.834C260.869 156.371 278.397 152.443 293.996 155.704C319.278 160.985 336.052 176.297 361.438 199.473L364.532 202.297C366.134 203.759 366.259 206.259 364.811 207.876C364.039 208.742 362.974 209.18 361.907 209.18C361.02 209.18 360.144 208.853 359.418 208.245C361.923 219.002 363.209 230.046 363.209 241.225C363.209 254.627 361.367 267.868 357.767 280.619C361.798 282.921 365.184 285.687 367.611 288.858C368.934 290.583 368.618 293.067 366.909 294.397C365.203 295.733 362.737 295.417 361.419 293.689C354.659 284.857 337.442 279.71 320.434 281.441C308.049 282.708 285.48 288.697 272.691 314.35C273.178 315.667 273.583 316.886 273.878 317.958C280.583 341.159 278.997 355.235 273.927 371.55C273.429 374.302 272.464 377.584 271.018 381.003C288.241 381.053 318.641 377.234 350.991 354.747C412.241 312.171 406.854 178.251 386.918 121.383Z" fill="#FFD200"/>
<path fill-rule="evenodd" clip-rule="evenodd" d="M457.652 45.1133C455.76 44.634 451.255 44.339 434.682 44.339C428.931 44.339 422.391 44.3706 415.432 44.4074C407.545 44.4469 399.126 44.4891 390.717 44.4891C376.309 44.4891 356.113 44.3758 342.459 43.4618C322.224 28.0872 298.202 19.4688 271.577 18.6549C214.806 16.898 164.918 41.3994 137.982 84.1518C127.622 94.4744 107.709 105.922 101.022 107.426C97.9254 108.119 95.5903 110.218 94.7659 113.036C93.9362 115.889 94.8285 119.01 97.1479 121.383C99.2743 123.548 103.699 126.256 112.552 126.256C117.313 126.256 123.377 125.455 131.032 123.385C133.907 129.965 138.862 134.153 142.898 135.965C152.541 140.287 183.876 127.747 196.222 110.436C205.781 115.56 215.727 117.514 225.793 117.498C218.814 120.709 212.447 124.66 207.128 129.388C194.341 140.748 193.84 150.044 195.669 155.844C198.265 164.078 207.375 170.183 218.868 171.406C226.351 172.206 235.968 170.046 247.104 167.549C261.798 164.259 278.454 160.53 292.41 163.443C313.168 167.778 327.603 179.426 348.544 198.378C353.081 212.153 355.382 226.567 355.382 241.225C355.382 253.476 353.749 265.581 350.568 277.26C341.551 273.889 330.612 272.453 319.648 273.578C297.998 275.793 279.792 287.272 268.714 305.376C260.579 289.322 244.813 268.207 227.468 268.207C223.239 268.207 219.215 269.472 215.516 271.964C196.211 284.954 201.69 308.055 206.52 328.434C207.816 333.899 209.04 339.062 209.773 343.874C210.663 349.722 210.428 356.841 210.204 363.724C209.755 377.358 209.29 391.452 217.251 399.762C221.399 404.093 227.348 406.289 234.932 406.289C250.618 406.289 260.759 398.04 266.838 388.818C268.224 388.871 269.69 388.908 271.292 388.908C281.387 388.908 295.616 387.63 311.996 382.586C287.52 420.984 241.478 449.571 201.268 450.343C186.847 450.659 167.303 447.116 156.546 428.855C143.482 406.674 122.631 398.706 108.797 402.312C97.902 405.144 91.4185 414.231 91.0036 427.232C90.6566 438.063 98.7186 451.091 113.118 462.973C132.049 478.595 161.902 491.752 192.339 491.752C199.895 491.752 207.49 490.941 214.963 489.155C281.345 473.28 340.641 419.27 356.603 360.395C392.504 334.5 403.931 283.029 407.167 244.18C411.289 194.656 403.673 145.495 394.296 118.747C390.983 109.293 387.09 100.485 382.741 92.254C391.46 95.2067 398.805 96.1654 404.581 96.1654H404.586C409.771 96.1654 414.806 95.4332 419.562 93.995C450.093 84.7471 462.867 61.9577 462.648 52.3726C462.562 48.5955 460.691 45.8798 457.652 45.1133ZM128.931 115.768C111.425 120.49 104.959 117.448 103.373 116.366C102.507 115.776 102.275 115.333 102.238 115.346C102.241 115.346 102.353 115.22 102.718 115.138C108.591 113.821 120.129 107.665 130.359 100.483C128.598 106.557 128.394 111.669 128.931 115.768ZM263.875 368.708C263.804 368.923 263.749 369.161 263.71 369.387C263.52 370.462 258.79 395.753 234.932 395.753C230.218 395.753 226.889 394.668 224.752 392.437C219.868 387.34 220.256 375.511 220.632 364.074C220.875 356.71 221.128 349.09 220.087 342.27C219.288 337.028 217.958 331.413 216.672 325.984C211.466 304.035 208.98 289.027 221.303 280.729C223.288 279.394 225.305 278.743 227.468 278.743C241.541 278.743 259.966 306.759 263.841 320.845C269.896 341.807 268.527 353.836 263.875 368.708ZM213.157 481.464C178.206 489.824 140.213 475.131 118.073 456.857C105.758 446.695 98.5621 435.716 98.8256 427.488C99.1256 418.108 103.36 411.887 110.749 409.964C121.775 407.098 138.723 414.054 149.82 432.895C159.711 449.687 177.917 458.632 201.416 458.242C246.913 457.37 299.35 423.11 323.489 378.522C330.844 375.582 338.509 371.826 346.334 367.106C327.846 419.87 273.578 467.019 213.157 481.464ZM386.918 121.383C406.854 178.251 412.241 312.171 350.991 354.747C318.641 377.234 288.241 381.053 271.018 381.003C272.464 377.584 273.429 374.302 273.927 371.55C278.997 355.235 280.583 341.159 273.878 317.958C273.583 316.886 273.178 315.667 272.691 314.35C285.48 288.697 308.049 282.708 320.434 281.441C337.442 279.71 354.659 284.857 361.419 293.689C362.737 295.417 365.203 295.733 366.909 294.397C368.618 293.067 368.934 290.583 367.611 288.858C365.184 285.687 361.798 282.921 357.767 280.619C361.367 267.868 363.209 254.627 363.209 241.225C363.209 230.046 361.923 219.002 359.418 208.245C360.144 208.853 361.02 209.18 361.907 209.18C362.974 209.18 364.039 208.742 364.811 207.876C366.259 206.259 366.134 203.759 364.532 202.297L361.438 199.473C336.052 176.297 319.278 160.985 293.996 155.704C278.397 152.443 260.869 156.371 245.41 159.834C235.378 162.084 225.91 164.199 219.688 163.546C211.409 162.669 204.756 158.607 203.125 153.444C201.539 148.421 204.798 141.984 212.299 135.32C234.173 115.884 274.807 110.028 304.811 121.981C306.82 122.787 309.095 121.789 309.888 119.758C310.681 117.727 309.695 115.433 307.686 114.632C295.491 109.773 281.653 107.65 267.861 108.016C268.407 107.078 268.584 105.927 268.232 104.81C267.572 102.732 265.377 101.589 263.311 102.25C242.444 108.99 218.383 115.07 196.978 101.773C196.068 101.207 194.969 101.044 193.928 101.318C192.893 101.591 192.016 102.287 191.497 103.232C182.381 119.966 151.007 130.961 146.076 128.743C143.164 127.436 139.141 123.843 137.387 118.017C134.979 110.018 137.377 99.9189 144.315 88.8061C169.693 48.1714 217.17 24.9001 271.342 26.5569C293.14 27.2206 313.097 33.508 330.481 44.7472C329.344 45.5058 328.519 46.5199 328.055 47.8185C327.476 49.4384 325.707 54.3666 338.53 65.1501L339.467 65.9562C351.064 75.9364 361.586 82.7268 370.943 87.3284C377.168 97.5404 382.542 108.901 386.918 121.383ZM452.755 59.437C448.147 68.6902 436.414 80.6407 417.313 86.4249C413.288 87.6445 409.009 88.2635 404.586 88.2635H404.581C392.201 88.2608 371.736 83.3458 344.547 59.9427L343.54 59.0814C339.542 55.7178 337.04 52.7704 336.02 51.0872C336.709 51.0293 337.774 51.0293 338.979 51.1268C352.82 52.2594 375.135 52.3911 390.717 52.3911C399.136 52.3911 407.574 52.3489 415.471 52.3094C422.414 52.2725 428.942 52.2409 434.682 52.2409C445.468 52.2409 452.225 52.3753 454.824 52.6413C454.824 53.7081 454.474 55.9786 452.755 59.437Z" fill="black"/>
<path fill-rule="evenodd" clip-rule="evenodd" d="M187.969 82.3075C181.746 87.0198 183.622 92.8462 190.578 93.7233C197.536 94.6004 198.079 95.0666 204.495 90.2095C211.451 84.9415 212.322 76.1598 204.495 77.0395C196.668 77.9193 191.45 79.6735 187.969 82.3075Z" fill="black"/>
<path fill-rule="evenodd" clip-rule="evenodd" d="M169.706 85.8214C169.706 90.1859 166.202 93.7233 161.879 93.7233C157.558 93.7233 154.052 90.1859 154.052 85.8214C154.052 81.4569 157.558 77.9194 161.879 77.9194C166.202 77.9194 169.706 81.4569 169.706 85.8214Z" fill="black"/>
<path fill-rule="evenodd" clip-rule="evenodd" d="M260.154 63.8721C260.154 68.2366 256.65 71.7741 252.327 71.7741C248.004 71.7741 244.5 68.2366 244.5 63.8721C244.5 59.5076 248.004 55.9701 252.327 55.9701C256.65 55.9701 260.154 59.5076 260.154 63.8721Z" fill="black"/>
<defs>
<clipPath id="clip0">
<rect width="202.942" height="224.576" fill="white" transform="translate(58.5264 143.588) rotate(-12.3289)"/>
</clipPath>
</defs>
</svg>
